# xmcd
#
# Track frame offsets:
#	150
#	19995
#	39344
#	56519
#	72419
#	92127
#	111345
#	130404
#	149109
#	165986
#	184169
#	201794
#	218436
#	237163
#	250742
#
# Disc length: 3560 seconds
#
# Revision: 0
# Processed by: cddbd v1.5.2PL0 Copyright (c) Steve Scherf et al.
# Submitted via: audiograbber 1.83.01
#
DISCID=d90de60f
DTITLE=Chartbuster Karaoke - Country Hits Of November 2006 60357
DYEAR=2006
DGENRE=karaoke
TTITLE0=Keith Urban - Once In A Lifetime
TTITLE1=Keith Anderson - Podunk
TTITLE2=Lee Ann Womack - Finding My Way Back Home
TTITLE3=Jason Aldean - Amarillo Sky
TTITLE4=Little Big Town - Good As Gone
TTITLE5=Ashley Monroe W/ Ronnie Dunn - I Don't Want To
TTITLE6=Rascal Flatts - My Wish
TTITLE7=Rodney Atkins - Watching You
TTITLE8=The Wreckers - My, Oh My
TTITLE9=The Lost Trailers - Why Me
TTITLE10=Trace Adkins - Ladies Love Country Boys
TTITLE11=Trent Willmon - So Am I
TTITLE12=Carolyn Dawn Johnson - Taking Back My Brave
TTITLE13=Vince Gill - The Reason Why
TTITLE14=Tyler Dean - Built For Blue Jeans
EXTD=
EXTT0=
EXTT1=
EXTT2=
EXTT3=
EXTT4=
EXTT5=
EXTT6=
EXTT7=
EXTT8=
EXTT9=
EXTT10=
EXTT11=
EXTT12=
EXTT13=
EXTT14=
PLAYORDER=
